<?xml version="1.0" encoding="UTF-8" standalone="no"?>
<svg
   xmlns:dc="http://purl.org/dc/elements/1.1/"
   xmlns:cc="http://creativecommons.org/ns#"
   xmlns:rdf="http://www.w3.org/1999/02/22-rdf-syntax-ns#"
   xmlns:svg="http://www.w3.org/2000/svg"
   xmlns="http://www.w3.org/2000/svg"
   viewBox="0 0 316.79199 88.488266"
   height="88.488266"
   width="316.79199"
   xml:space="preserve"
   id="svg2"
   version="1.1"><metadata
     id="metadata8"><rdf:RDF><cc:Work
         rdf:about=""><dc:format>image/svg+xml</dc:format><dc:type
           rdf:resource="http://purl.org/dc/dcmitype/StillImage" /></cc:Work></rdf:RDF></metadata><defs
     id="defs6"><clipPath
       id="clipPath18"
       clipPathUnits="userSpaceOnUse"><path
         id="path16"
         d="M 0,66.366 H 237.594 V 0 H 0 Z" /></clipPath></defs><g
     transform="matrix(1.3333333,0,0,-1.3333333,0,88.488267)"
     id="g10"><g
       id="g12"><g
         clip-path="url(#clipPath18)"
         id="g14"><g
           transform="translate(7.0176,43.6621)"
           id="g20"><path
             id="path22"
             style="fill:#1ba2bd;fill-opacity:1;fill-rule:nonzero;stroke:none"
             d="m 0,0 c 2.262,0.449 3.945,0.669 5.393,0.669 5.781,0 10.644,-1.557 14.573,-4.671 4.263,-3.375 6.393,-7.897 6.393,-13.571 0,-5.822 -1.981,-10.493 -5.951,-14.013 -3.784,-3.337 -8.638,-5.008 -14.573,-5.008 -2.369,0 -4.429,0.226 -5.835,0.669 z m 23.969,-36.425 c 5.781,4.374 8.676,10.621 8.676,18.741 0,6.635 -2.506,12.308 -7.514,17.019 -5,4.708 -10.843,7.063 -17.514,7.063 -7.824,0 -12.34,-0.668 -14.635,-2.003 V -41.43 c 2.337,-0.634 5.939,-0.945 10.798,-0.945 8.271,0 14.994,1.981 20.189,5.95" /></g><g
           transform="translate(69.6484,30.0752)"
           id="g24"><path
             id="path26"
             style="fill:#1ba2bd;fill-opacity:1;fill-rule:nonzero;stroke:none"
             d="m 0,0 c 2.567,-2.536 3.854,-5.722 3.854,-9.556 0,-4.091 -1.266,-7.474 -3.8,-10.15 -2.539,-2.684 -5.827,-4.021 -9.88,-4.021 -3.945,0 -7.138,1.323 -9.582,3.963 -2.444,2.645 -3.668,5.953 -3.668,9.936 0,3.801 1.299,7.021 3.884,9.665 2.588,2.642 5.781,3.96 9.581,3.96 C -5.773,3.797 -2.577,2.532 0,0 m -22.931,3.078 c -3.54,-3.747 -5.31,-8.269 -5.31,-13.57 0,-5.154 1.911,-9.491 5.723,-13.014 3.822,-3.524 8.33,-5.282 13.519,-5.282 4.859,0 9.057,1.836 12.597,5.505 3.539,3.671 5.309,7.933 5.309,12.791 0,5.339 -1.77,9.869 -5.309,13.598 -3.54,3.726 -7.982,5.588 -13.321,5.588 -5.268,0 -9.669,-1.874 -13.208,-5.616" /></g><g
           transform="translate(167.9082,30.0752)"
           id="g28"><path
             id="path30"
             style="fill:#1ba2bd;fill-opacity:1;fill-rule:nonzero;stroke:none"
             d="m 0,0 c 2.572,-2.536 3.854,-5.722 3.854,-9.556 0,-4.091 -1.265,-7.474 -3.8,-10.15 -2.534,-2.684 -5.826,-4.021 -9.879,-4.021 -3.946,0 -7.138,1.323 -9.582,3.963 -2.444,2.645 -3.668,5.953 -3.668,9.936 0,3.801 1.299,7.021 3.884,9.665 2.587,2.642 5.785,3.96 9.581,3.96 C -5.772,3.797 -2.567,2.532 0,0 m -22.926,3.078 c -3.54,-3.747 -5.31,-8.269 -5.31,-13.57 0,-5.154 1.907,-9.491 5.727,-13.014 3.814,-3.524 8.321,-5.282 13.519,-5.282 4.851,0 9.049,1.836 12.588,5.505 3.54,3.671 5.318,7.933 5.318,12.791 0,5.339 -1.778,9.869 -5.318,13.598 -3.539,3.726 -7.977,5.588 -13.32,5.588 -5.26,0 -9.665,-1.874 -13.204,-5.616" /></g><g
           transform="translate(80.3047,38.8291)"
           id="g32"><path
             id="path34"
             style="fill:#1ba2bd;fill-opacity:1;fill-rule:nonzero;stroke:none"
             d="m 0,0 v -36.155 h 5.207 v 23.304 L 32.6,-37.628 v 35.972 h -5.191 v -24.765 z" /></g><g
           transform="translate(178.5654,38.8291)"
           id="g36"><path
             id="path38"
             style="fill:#1ba2bd;fill-opacity:1;fill-rule:nonzero;stroke:none"
             d="m 0,0 v -36.155 h 5.206 v 23.304 L 32.6,-37.628 v 35.972 h -5.191 v -24.765 z" /></g><g
           transform="translate(113.6611,62.144)"
           id="g40"><path
             id="path42"
             style="fill:#1ba2bd;fill-opacity:1;fill-rule:nonzero;stroke:none"
             d="m 0,0 c 79.896,0 114.959,-23.281 114.959,-53.994 0,-2.769 -0.442,-5.49 -1.303,-8.15 h 9.648 c 0.414,2.034 0.629,4.099 0.629,6.183 0,34.441 -37.132,60.183 -121.729,60.183 -33.882,0 -66.29,-5.85 -90.945,-15.695 1.736,-0.442 3.403,-1.061 5.008,-1.872 C -60.732,-4.974 -31.016,0 0,0" /></g><g
           transform="translate(123.416,6.3633)"
           id="g44"><path
             id="path46"
             style="fill:#1ba2bd;fill-opacity:1;fill-rule:nonzero;stroke:none"
             d="m 0,0 c -2.188,-0.02 -4.603,0.448 -7.018,1.351 l -0.884,-5.247 c 1.843,-0.806 4.743,-1.289 7.678,-1.263 4.02,0.028 7.68,0.95 10.319,2.592 3.283,2.05 4.933,5.116 4.896,9.116 -0.083,8.143 -5.248,11.795 -9.805,15.019 -3.73,2.637 -8.06,5.124 -8.06,9.593 0,5.008 3.949,6.977 9.185,7.021 2.266,0.016 4.813,-0.483 7.389,-1.451 l 0.886,5.248 C 12.732,42.783 9.793,43.266 6.795,43.243 -0.554,43.187 -8.378,40.219 -8.291,32.075 -8.221,25.25 -3.552,21.619 0.964,18.104 4.975,14.986 9.532,12.04 9.582,7.155 9.623,2.918 5.314,0.04 0,0" /></g><g
           transform="translate(228.3428,50.0313)"
           id="g48"><path
             id="path50"
             style="fill:#1ba2bd;fill-opacity:1;fill-rule:nonzero;stroke:none"
             d="m 0,0 c 1.725,0 2.998,-1.392 2.998,-3.12 0,-1.701 -1.273,-3.097 -2.952,-3.074 -1.733,0 -3.027,1.373 -3.027,3.097 C -2.981,-1.392 -1.687,0 0,0 m 0.017,-7 c 2.224,0 3.978,1.728 3.978,3.903 0,2.175 -1.754,3.88 -3.949,3.88 -2.246,0 -4.028,-1.705 -4.028,-3.88 C -3.982,-5.272 -2.2,-7 0.017,-7" /></g><g
           transform="translate(227.7686,48.2109)"
           id="g52"><path
             id="path54"
             style="fill:#1ba2bd;fill-opacity:1;fill-rule:nonzero;stroke:none"
             d="m 0,0 c 0.099,0.026 0.26,0.049 0.5,0.049 0.562,0 0.827,-0.238 0.827,-0.592 0,-0.403 -0.401,-0.568 -0.897,-0.568 l -0.43,0 z M -0.021,-1.75 H 0.4 c 0.505,0 0.737,-0.188 0.807,-0.592 0.12,-0.471 0.187,-0.802 0.306,-0.945 h 0.951 c -0.07,0.143 -0.165,0.354 -0.285,0.945 -0.12,0.524 -0.31,0.828 -0.687,0.948 v 0.046 c 0.451,0.142 0.807,0.449 0.807,0.925 0,0.377 -0.165,0.66 -0.405,0.825 C 1.633,0.59 1.302,0.71 0.574,0.71 -0.07,0.71 -0.562,0.639 -0.919,0.59 v -3.877 h 0.898 z" /></g></g></g></g></svg>