<svg xmlns="http://www.w3.org/2000/svg" viewBox="0 0 800 224"><defs><clipPath id="a"><path d="M0 66.366h237.594v-66.366h-237.594z"/></clipPath></defs><g clip-path="url(#a)"><path d="M9.357 30.272c3.015-.599 5.259-.892 7.189-.892 7.706 0 14.188 2.075 19.426 6.226 5.683 4.499 8.522 10.527 8.522 18.09 0 7.761-2.641 13.987-7.933 18.679-5.044 4.448-11.514 6.676-19.426 6.676-3.158 0-5.904-.301-7.778-.892zm31.951 48.555c7.706-5.831 11.565-14.158 11.565-24.982 0-8.844-3.34-16.407-10.016-22.686-6.665-6.276-14.454-9.415-23.346-9.415-10.429 0-16.449.89-19.508 2.67v61.085c3.115.845 7.917 1.26 14.394 1.26 11.025 0 19.987-2.641 26.912-7.931" fill="#1ba2bd"/><path d="M92.865 48.388c3.422 3.38 5.137 7.627 5.137 12.738 0 5.453-1.688 9.963-5.065 13.53-3.384 3.578-7.767 5.36-13.17 5.36-5.259 0-9.515-1.764-12.773-5.283-3.258-3.526-4.889-7.935-4.889-13.245 0-5.067 1.732-9.359 5.177-12.883 3.45-3.522 7.706-5.279 12.771-5.279 5.116 0 9.376 1.686 12.811 5.061m-30.567-4.103c-4.719 4.995-7.078 11.023-7.078 18.089 0 6.87 2.547 12.652 7.629 17.348 5.095 4.697 11.104 7.041 18.021 7.041 6.477 0 12.073-2.447 16.792-7.338 4.717-4.893 7.077-10.575 7.077-17.05 0-7.117-2.359-13.155-7.077-18.126-4.719-4.967-10.64-7.449-17.757-7.449-7.022 0-12.889 2.498-17.606 7.486" fill="#1ba2bd"/><path d="M223.878 48.388c3.428 3.38 5.137 7.627 5.137 12.738 0 5.453-1.686 9.963-5.065 13.53-3.378 3.578-7.766 5.36-13.169 5.36-5.26 0-9.515-1.764-12.773-5.283-3.258-3.526-4.889-7.935-4.889-13.245 0-5.067 1.732-9.359 5.177-12.883 3.448-3.522 7.711-5.279 12.771-5.279 5.116 0 9.388 1.686 12.81 5.061m-30.56-4.103c-4.719 4.995-7.078 11.023-7.078 18.089 0 6.87 2.542 12.652 7.634 17.348 5.084 4.697 11.092 7.041 18.021 7.041 6.466 0 12.062-2.447 16.78-7.338 4.719-4.893 7.089-10.575 7.089-17.05 0-7.117-2.37-13.155-7.089-18.126-4.717-4.967-10.633-7.449-17.756-7.449-7.012 0-12.883 2.498-17.601 7.486" fill="#1ba2bd"/><path d="M107.073 36.716v48.195h6.941v-31.064l36.515 33.028v-47.951h-6.92v33.012z" fill="#1ba2bd"/><path d="M238.087 36.716v48.195h6.94v-31.064l36.516 33.028v-47.951h-6.92v33.012z" fill="#1ba2bd"/><path d="M151.548 5.63c106.501 0 153.24 31.034 153.24 71.974 0 3.691-.589 7.318-1.737 10.864h12.861c.552-2.711.838-5.464.838-8.242 0-45.91-49.497-80.224-162.265-80.224-45.165 0-88.365 7.798-121.23 20.921 2.314.589 4.536 1.414 6.676 2.495 30.66-11.159 70.272-17.789 111.616-17.789" fill="#1ba2bd"/><path d="M164.555 80.004c-2.917.027-6.136-.597-9.355-1.801l-1.178 6.994c2.457 1.074 6.322 1.718 10.235 1.684 5.359-.037 10.237-1.266 13.755-3.455 4.376-2.733 6.576-6.82 6.526-12.152-.111-10.855-6.996-15.723-13.07-20.02-4.972-3.515-10.744-6.83-10.744-12.787 0-6.676 5.264-9.3 12.244-9.359 3.021-.021 6.416.644 9.85 1.934l1.181-6.996c-2.471-1.072-6.389-1.716-10.385-1.685-9.796.075-20.226 4.031-20.11 14.887.093 9.098 6.317 13.938 12.337 18.623 5.347 4.156 11.421 8.083 11.488 14.595.055 5.648-5.689 9.484-12.773 9.538" fill="#1ba2bd"/><path d="M304.457 21.78c2.299 0 3.996 1.856 3.996 4.159 0 2.267-1.697 4.128-3.935 4.098-2.31 0-4.035-1.83-4.035-4.128 0-2.273 1.725-4.128 3.974-4.128m.023 9.331c2.965 0 5.303-2.303 5.303-5.203 0-2.899-2.338-5.172-5.264-5.172-2.994 0-5.369 2.273-5.369 5.172 0 2.899 2.375 5.203 5.331 5.203" fill="#1ba2bd"/><path d="M303.691 24.207c.132-.035.347-.065.666-.065.749 0 1.102.317 1.102.789 0 .537-.535.757-1.196.757h-.573zm-.028 2.333h.561c.673 0 .982.251 1.076.789.16.628.249 1.069.408 1.26h1.268c-.093-.191-.22-.472-.38-1.26-.16-.698-.413-1.104-.916-1.264v-.061c.601-.189 1.076-.599 1.076-1.233 0-.503-.22-.88-.54-1.1-.348-.251-.789-.411-1.76-.411-.858 0-1.514.095-1.99.16v5.168h1.197z" fill="#1ba2bd"/></g></svg>
